<?xml version="1.0" encoding="utf-8"?>
<svg version="1.1" xmlns="http://www.w3.org/2000/svg" xmlns:xlink="http://www.w3.org/1999/xlink" x="0px" y="0px"
	 viewBox="0 0 350 75" enable-background="new 0 0 350 75" xml:space="preserve">
<g transform="translate(-608 -568.697)">
	<g>
		<g transform="translate(608 568.697)">
			<g transform="translate(11.768 7.242)">
				<path fill="#4285F4" d="M23.2,45.6h6.7V29.4l-9.5-7.2v20.4C20.3,44.2,21.5,45.6,23.2,45.6z"/>
				<path fill="#34A853" d="M52.7,45.6h6.7c1.5,0,2.9-1.3,2.9-2.9l0,0V22.3l-9.7,7.2V45.6z"/>
				<path fill="#FBBC04" d="M52.7,17v12.4l9.5-7.2v-3.8c0-2.3-1.9-4.2-4.2-4.2c-0.8-0.2-1.9,0.2-2.5,0.6L52.7,17z"/>
				<path fill-rule="evenodd" clip-rule="evenodd" fill="#EA4335" d="M29.9,29.4V17l11.4,8.6L52.7,17v12.4L41.3,38L29.9,29.4z"/>
				<path fill="#C5221F" d="M20.3,18.5v3.8l9.5,7.2V17L27,14.9c-1.9-1.5-4.6-1.1-6.1,0.8C20.7,16.6,20.3,17.4,20.3,18.5z"/>
				<path fill="#FFFFFF" d="M111.9,20.8H92.7v19.2h19.2V20.8z"/>
				<path fill="#4285F4" d="M96.7,35.5c-0.6-0.4-1.3-1.3-1.5-2.1l1.7-0.6c0.2,0.4,0.4,1.1,0.8,1.3c0.4,0.4,0.8,0.4,1.3,0.4
					c0.4,0,1.1-0.2,1.5-0.4c0.4-0.2,0.6-0.8,0.6-1.3c0-0.4-0.2-1.1-0.6-1.3c-0.4-0.4-1.1-0.4-1.5-0.4H98v-1.7h0.8
					c0.4,0,1.1-0.2,1.3-0.4c0.4-0.2,0.6-0.6,0.6-1.3c0-0.4-0.2-0.8-0.4-1.1c-0.4-0.2-0.8-0.4-1.3-0.4c-0.4,0-0.8,0.2-1.1,0.4
					c-0.2,0.2-0.4,0.6-0.6,1.1l-1.7-0.6c0.2-0.6,0.6-1.3,1.3-1.7c0.6-0.4,1.5-0.8,2.3-0.6c0.6,0,1.3,0.2,1.9,0.4
					c0.4,0.2,1.1,0.6,1.3,1.1c0.2,0.4,0.4,1.1,0.4,1.5c0,0.4-0.2,1.1-0.4,1.5c-0.2,0.4-0.6,0.6-1.1,0.8l0,0c0.6,0.2,1.1,0.6,1.3,1.1
					c0.4,0.4,0.6,1.1,0.4,1.7c0,0.6-0.2,1.3-0.4,1.7c-0.6,0.6-1.1,1.1-1.7,1.3c-0.6,0.2-1.3,0.4-1.9,0.4
					C98.2,36.4,97.3,35.9,96.7,35.5z"/>
				<path fill="#4285F4" d="M106.8,27.3l-1.9,1.3l-0.8-1.3l3.2-2.3h1.3v11.2h-1.7L106.8,27.3L106.8,27.3z"/>
				<path fill="#34A853" d="M111.9,39.7H92.7v8.6h19.2V39.7z"/>
				<path fill="#4285F4" d="M111.9,12.2H87c-1.5,0-2.9,1.3-2.9,2.9v24.6h8.6V20.6h19.2V12.2z"/>
				<path fill="#188038" d="M84.3,39.7v5.9c0,1.7,1.3,2.9,2.9,2.9h5.7v-8.8H84.3z"/>
				<path fill="#FBBC04" d="M120.5,20.8h-8.6v19.2h8.6V20.8z"/>
				<path fill="#1967D2" d="M120.5,20.8v-5.7c0-1.5-1.3-2.9-2.9-2.9l0,0h-5.7v8.6C111.9,20.8,120.5,20.8,120.5,20.8z"/>
				<path fill="#EA4335" d="M111.9,48.4l8.6-8.6h-8.6C111.9,39.7,111.9,48.4,111.9,48.4z"/>
				<path fill="#0066DA" d="M145.5,43.1l1.9,3.2c0.4,0.6,0.8,1.3,1.5,1.5l6.5-11.4h-13.1c0,0.8,0.2,1.5,0.6,2.1L145.5,43.1z"/>
				<path fill="#00AC47" d="M163.2,23.1l-6.5-11.4c-0.6,0.4-1.3,0.8-1.5,1.5l-12,21.1c-0.4,0.6-0.6,1.5-0.6,2.1h13.1L163.2,23.1z"/>
				<path fill="#00832D" d="M163.2,23.1l6.5-11.4c-0.6-0.4-1.5-0.6-2.1-0.6h-8.8c-0.8,0-1.5,0.2-2.1,0.6L163.2,23.1z"/>
				<path fill="#2684FC" d="M171,36.6h-15.4l-6.5,11.2c0.6,0.4,1.5,0.6,2.1,0.6h24.2c0.8,0,1.5-0.2,2.1-0.6L171,36.6z"/>
				<path fill="#EA4335" d="M177.5,47.7c0.6-0.4,1.3-0.8,1.5-1.5l0.8-1.3l3.6-6.3c0.4-0.6,0.6-1.5,0.6-2.1H171L177.5,47.7z"/>
				<path fill="#FFBA00" d="M177.5,23.9l-6.1-10.5c-0.4-0.6-0.8-1.3-1.5-1.5l-6.5,11.4l7.8,13.3h12.8c0-0.8-0.2-1.5-0.6-2.1
					L177.5,23.9z"/>
				<path fill="#00832D" d="M219.5,40.8h-10.5v7.6c0,1.7,1.3,2.9,2.9,2.9l0,0h7.6V40.8z"/>
				<path fill="#FFBA00" d="M219.5,9.4h-7.6c-1.7,0-2.9,1.3-2.9,2.9l0,0v28.4h10.5V19.7h9.5V9.2h-9.5V9.4z"/>
				<path fill="#0066DA" d="M239.5,40.8h-10.5v10.5h7.8c1.5,0,2.9-1.3,2.9-2.9l0,0v-7.6H239.5z"/>
				<path fill="#00AC47" d="M229.1,40.8h-9.5v10.5h9.5V40.8z"/>
				<path fill="#2684FC" d="M229.1,19.7v21.1h10.5V19.7C239.7,19.7,229.1,19.7,229.1,19.7z"/>
				<path fill="#EA4335" d="M229.1,9.4v10.5h10.5L229.1,9.4z"/>
				<path fill="#FFFFFF" d="M229.1,19.7h-9.5v21.1h9.5V19.7z"/>
				<path fill="#00832D" d="M288.1,30.3l4,4.6l5.5,3.6l1.1-8.2l-1.1-7.8l-5.5,3.2L288.1,30.3z"/>
				<path fill="#0066DA" d="M264.5,37.6v6.9c0,1.7,1.3,2.9,2.9,2.9l0,0h6.9l1.5-5.3l-1.5-4.6l-4.8-1.5L264.5,37.6z"/>
				<path fill="#E94235" d="M274.4,13.2l-9.7,9.7l5.1,1.5l4.8-1.5l1.5-4.4L274.4,13.2z"/>
				<path fill="#2684FC" d="M274.4,22.9h-9.7v14.7h9.7V22.9z"/>
				<path fill="#00AC47" d="M303.9,17.2l-6.3,5.1v16l6.3,5.1c0.6,0.4,1.5,0.4,2.1-0.2c0.2-0.2,0.2-0.6,0.2-0.8V18.5
					c0-0.8-0.6-1.5-1.5-1.5C304.5,17,304.1,17,303.9,17.2z"/>
				<path fill="#00AC47" d="M288.1,30.3v7.4h-13.9v9.7h20.4c1.5,0,2.9-1.3,2.9-2.9l0,0v-5.9L288.1,30.3z"/>
				<path fill="#FFBA00" d="M294.8,13.2h-20.4v9.7h13.9v7.4l9.5-8v-6.3C297.6,14.5,296.3,13.2,294.8,13.2L294.8,13.2z"/>
			</g>
		</g>
	</g>
</g>
</svg>
